<svg width="1280" height="720" viewBox="0 0 1280 720" fill="none" xmlns="http://www.w3.org/2000/svg">
  <rect width="1280" height="720" rx="36" fill="#091019"/>
  <rect x="52" y="44" width="1176" height="632" rx="30" fill="#F6F8FB"/>
  <rect x="52" y="44" width="1176" height="74" rx="30" fill="#E9EEF4"/>
  <circle cx="96" cy="81" r="10" fill="#FF6B6B"/>
  <circle cx="128" cy="81" r="10" fill="#F4B942"/>
  <circle cx="160" cy="81" r="10" fill="#59C3C3"/>
  <rect x="206" y="62" width="318" height="38" rx="19" fill="#FFFFFF"/>
  <text x="236" y="86" fill="#415565" font-family="Arial, sans-serif" font-size="18" font-weight="700">a2i.gov.bd</text>

  <rect x="86" y="136" width="1108" height="506" rx="26" fill="#FFFFFF"/>
  <rect x="86" y="136" width="1108" height="94" rx="26" fill="url(#heroGradient)"/>
  <text x="128" y="177" fill="#E9F4FF" font-family="Arial, sans-serif" font-size="18" font-weight="700">ICT DIVISION</text>
  <text x="128" y="210" fill="#FFFFFF" font-family="Arial, sans-serif" font-size="34" font-weight="700">Aspire to Innovate (a2i)</text>
  <text x="862" y="188" fill="#D9E8FF" font-family="Arial, sans-serif" font-size="20">Innovation</text>
  <text x="974" y="188" fill="#D9E8FF" font-family="Arial, sans-serif" font-size="20">Data</text>
  <text x="1050" y="188" fill="#D9E8FF" font-family="Arial, sans-serif" font-size="20">e-Gov</text>

  <rect x="128" y="264" width="460" height="302" rx="24" fill="#F3F8FD"/>
  <text x="164" y="314" fill="#2B4C7E" font-family="Arial, sans-serif" font-size="20" font-weight="700" letter-spacing="1.5">PUBLIC SERVICE INNOVATION</text>
  <text x="164" y="368" fill="#102A43" font-family="Arial, sans-serif" font-size="44" font-weight="700">Service Delivery</text>
  <text x="164" y="418" fill="#102A43" font-family="Arial, sans-serif" font-size="44" font-weight="700">to the Last Mile</text>
  <text x="164" y="460" fill="#486581" font-family="Arial, sans-serif" font-size="23">Inspired by the live a2i portal structure:</text>
  <text x="164" y="494" fill="#486581" font-family="Arial, sans-serif" font-size="23">innovation, data, dashboards, and</text>
  <text x="164" y="528" fill="#486581" font-family="Arial, sans-serif" font-size="23">citizen-facing government services.</text>

  <rect x="164" y="554" width="184" height="44" rx="22" fill="#1D4ED8"/>
  <text x="205" y="582" fill="#FFFFFF" font-family="Arial, sans-serif" font-size="20" font-weight="700">National Portal</text>

  <rect x="628" y="264" width="526" height="302" rx="24" fill="#F8FAFC"/>
  <rect x="662" y="298" width="214" height="112" rx="20" fill="#E8F0FE"/>
  <text x="690" y="334" fill="#1E40AF" font-family="Arial, sans-serif" font-size="18" font-weight="700">DATA &amp; RESEARCH</text>
  <text x="690" y="376" fill="#102A43" font-family="Arial, sans-serif" font-size="30" font-weight="700">National Dashboard</text>
  <text x="690" y="402" fill="#4B6480" font-family="Arial, sans-serif" font-size="18">Analytics, reporting, service visibility</text>

  <rect x="900" y="298" width="220" height="112" rx="20" fill="#EEF7F2"/>
  <text x="930" y="334" fill="#166534" font-family="Arial, sans-serif" font-size="18" font-weight="700">E-GOVERNANCE</text>
  <text x="930" y="376" fill="#102A43" font-family="Arial, sans-serif" font-size="28" font-weight="700">Digital Services</text>
  <text x="930" y="402" fill="#4B6480" font-family="Arial, sans-serif" font-size="18">Portals, systems, workflows</text>

  <rect x="662" y="438" width="458" height="94" rx="20" fill="#0F172A"/>
  <text x="694" y="478" fill="#BFDBFE" font-family="Arial, sans-serif" font-size="18" font-weight="700">LIVE SYSTEM DELIVERY</text>
  <text x="694" y="512" fill="#E2E8F0" font-family="Arial, sans-serif" font-size="24">Production support, debugging, database optimisation, QA collaboration</text>

  <rect x="128" y="590" width="1026" height="24" rx="12" fill="#EEF2F7"/>
  <rect x="128" y="590" width="362" height="24" rx="12" fill="#2563EB"/>

  <text x="128" y="654" fill="#E5EDF5" font-family="Arial, sans-serif" font-size="20">a2i-based website snippet for enterprise and government systems work</text>

  <defs>
    <linearGradient id="heroGradient" x1="86" y1="136" x2="1194" y2="230" gradientUnits="userSpaceOnUse">
      <stop stop-color="#0F3D91"/>
      <stop offset="0.55" stop-color="#1D4ED8"/>
      <stop offset="1" stop-color="#1E3A8A"/>
    </linearGradient>
  </defs>
</svg>
