<svg width="1280" height="720" viewBox="0 0 1280 720" fill="none" xmlns="http://www.w3.org/2000/svg">
  <rect width="1280" height="720" rx="36" fill="#0A1118"/>
  <rect x="54" y="48" width="1172" height="624" rx="30" fill="#F8FAFC"/>
  <rect x="54" y="48" width="1172" height="70" rx="30" fill="#E9EEF5"/>
  <circle cx="98" cy="83" r="10" fill="#FF6B6B"/>
  <circle cx="130" cy="83" r="10" fill="#F4B942"/>
  <circle cx="162" cy="83" r="10" fill="#4FD1C5"/>
  <rect x="210" y="64" width="346" height="38" rx="19" fill="#FFFFFF"/>
  <text x="238" y="88" fill="#40566B" font-family="Arial, sans-serif" font-size="18" font-weight="700">sdg health analytics</text>
  <rect x="86" y="144" width="1108" height="498" rx="26" fill="#FFFFFF"/>
  <rect x="118" y="178" width="440" height="430" rx="24" fill="#EAF7EF"/>
  <text x="158" y="232" fill="#166534" font-family="Arial, sans-serif" font-size="20" font-weight="700">UN SDG GOAL 3</text>
  <text x="158" y="290" fill="#102A43" font-family="Arial, sans-serif" font-size="46" font-weight="700">Global Health</text>
  <text x="158" y="344" fill="#102A43" font-family="Arial, sans-serif" font-size="46" font-weight="700">Achievement</text>
  <text x="158" y="388" fill="#486581" font-family="Arial, sans-serif" font-size="23">WHO and UN indicators across</text>
  <text x="158" y="422" fill="#486581" font-family="Arial, sans-serif" font-size="23">190+ countries, modelled with</text>
  <text x="158" y="456" fill="#486581" font-family="Arial, sans-serif" font-size="23">statistical regression.</text>
  <rect x="158" y="510" width="158" height="54" rx="27" fill="#16A34A"/>
  <text x="198" y="545" fill="#FFFFFF" font-family="Arial, sans-serif" font-size="22" font-weight="700">R2 0.97</text>
  <rect x="334" y="510" width="158" height="54" rx="27" fill="#DCFCE7"/>
  <text x="374" y="545" fill="#166534" font-family="Arial, sans-serif" font-size="22" font-weight="700">190+</text>
  <rect x="608" y="178" width="544" height="430" rx="24" fill="#F8FAFC"/>
  <path d="M692 338C748 272 816 376 868 308C922 236 988 280 1068 212" stroke="#16A34A" stroke-width="10" stroke-linecap="round"/>
  <path d="M692 488C748 452 802 468 858 420C916 370 978 392 1068 330" stroke="#2563EB" stroke-width="10" stroke-linecap="round"/>
  <rect x="668" y="520" width="430" height="28" rx="14" fill="#E2E8F0"/>
  <rect x="668" y="520" width="348" height="28" rx="14" fill="#16A34A"/>
  <text x="668" y="252" fill="#102A43" font-family="Arial, sans-serif" font-size="28" font-weight="700">Health Indicators</text>
  <text x="668" y="292" fill="#64748B" font-family="Arial, sans-serif" font-size="20">life expectancy, mortality, care access</text>
  <g fill="#DCEBFF" stroke="#2563EB" stroke-width="4">
    <circle cx="722" cy="390" r="26"/>
    <circle cx="824" cy="344" r="22"/>
    <circle cx="934" cy="372" r="28"/>
    <circle cx="1032" cy="298" r="24"/>
  </g>
  <text x="668" y="584" fill="#475569" font-family="Arial, sans-serif" font-size="20">Predictive modelling for clear global development insights</text>
</svg>
